<svg width="79" height="248" viewBox="0 0 79 248" fill="none" xmlns="http://www.w3.org/2000/svg">
<path d="M39.1175 7.60671C37.1256 6.65145 36.2852 4.26229 37.2405 2.27036C38.1957 0.278428 40.5849 -0.561963 42.5768 0.393293L40.8472 4L39.1175 7.60671ZM52.498 87.3543L49.8314 90.3358L52.498 87.3543ZM74.4979 150L78.4913 149.77L74.4979 150ZM28.1202 244.987C25.9182 244.809 24.2776 242.879 24.4557 240.677L27.3584 204.795C27.5366 202.593 29.466 200.952 31.6679 201.13C33.8699 201.308 35.5105 203.238 35.3324 205.44L32.7522 237.336L64.648 239.916C66.85 240.094 68.4906 242.023 68.3125 244.225C68.1343 246.427 66.2049 248.068 64.003 247.89L28.1202 244.987ZM40.8472 4C42.5768 0.393293 42.5789 0.394306 42.5812 0.395373C42.5821 0.395798 42.5844 0.39692 42.5861 0.397773C42.5897 0.399481 42.5937 0.401402 42.5981 0.403539C42.6069 0.407813 42.6174 0.412947 42.6296 0.418949C42.6541 0.430953 42.6854 0.446427 42.7232 0.465427C42.7989 0.503422 42.9009 0.555531 43.0276 0.622175C43.2809 0.75544 43.6331 0.946978 44.0705 1.20019C44.9449 1.70642 46.1622 2.46053 47.6123 3.49004C50.5101 5.5475 54.3546 8.71688 58.2502 13.2209C66.0782 22.2712 74.0179 36.6089 74.9938 57.8161L70.998 58L67.0023 58.1839C66.1175 38.958 58.9818 26.2957 52.1995 18.4543C48.79 14.5124 45.4456 11.763 42.981 10.0132C41.7497 9.13901 40.7423 8.51731 40.0623 8.12365C39.7225 7.92693 39.4651 7.78751 39.3031 7.70229C39.2221 7.6597 39.1651 7.63069 39.1336 7.61488C39.1179 7.60697 39.1085 7.60237 39.1058 7.60103C39.1044 7.60035 39.1047 7.60049 39.1066 7.60144C39.1076 7.60192 39.109 7.60259 39.1108 7.60347C39.1117 7.60391 39.1134 7.60472 39.1139 7.60494C39.1157 7.6058 39.1175 7.60671 40.8472 4ZM70.998 58L74.9938 57.8161C76.9128 99.5168 53.951 124.945 29.6813 124.945V120.945V116.945C47.5904 116.945 68.8046 97.3493 67.0023 58.1839L70.998 58ZM29.6813 120.945V124.945C5.56081 124.945 -5.30759 99.7239 4.67127 85.0998L7.97535 87.3543L11.2794 89.6089C5.12885 98.6226 11.6231 116.945 29.6813 116.945V120.945ZM7.97535 87.3543L4.67127 85.0998C9.27955 78.3463 16.5979 73.261 25.6637 72.4583C34.7499 71.6538 44.9136 75.2042 55.1647 84.3729L52.498 87.3543L49.8314 90.3358C40.7639 82.2257 32.6986 79.8667 26.3693 80.4271C20.0196 80.9894 14.7359 84.5435 11.2794 89.6089L7.97535 87.3543ZM52.498 87.3543L55.1647 84.3729C62.852 91.2485 68.3321 102.787 72.0347 114.623C75.7792 126.593 77.9013 139.51 78.4913 149.77L74.4979 150L70.5045 150.23C69.9499 140.584 67.9366 128.318 64.3996 117.012C60.8208 105.571 55.8733 95.7397 49.8314 90.3358L52.498 87.3543ZM74.4979 150L78.4913 149.77C80.4475 183.789 60.1449 219.294 31.0339 244.047L28.4427 241L25.8515 237.953C53.801 214.187 72.2684 180.904 70.5045 150.23L74.4979 150Z" fill="#BFD62E"/>
</svg>
