<svg width="60" height="60" viewBox="0 0 60 60" fill="none" xmlns="http://www.w3.org/2000/svg">
<circle cx="30" cy="30" r="30" fill="#FFDBCC"/>
<path fill-rule="evenodd" clip-rule="evenodd" d="M34.4227 24.1917C39.6285 24.1917 43.8486 28.3745 43.8486 33.5341C43.8486 35.5003 43.2358 37.3245 42.1892 38.8296L47 43.5978L44.5763 46L39.7655 41.2319C38.247 42.2692 36.4064 42.8766 34.4227 42.8766C29.2169 42.8766 24.9967 38.6938 24.9967 33.5341C24.9967 28.3745 29.2169 24.1917 34.4227 24.1917ZM34.4227 27.589C31.1099 27.589 28.4244 30.2508 28.4244 33.5341C28.4244 36.8176 31.1099 39.4793 34.4227 39.4793C37.7355 39.4793 40.421 36.8175 40.421 33.5341C40.421 30.2507 37.7354 27.589 34.4227 27.589ZM23.3153 32.6848C23.2937 32.9651 23.2829 33.2483 23.2828 33.5341C23.2828 34.4111 23.386 35.2642 23.5809 36.0822L13 36.082V32.6848L23.3153 32.6848ZM19.8554 14V30.9862H14.7139V14H19.8554ZM26.7106 20.7945L26.7103 25.567C25.1896 27.0136 24.0821 28.8837 23.5811 30.9861L21.5691 30.9862V20.7945H26.7106ZM33.5658 17.3973V22.5253C31.736 22.6622 29.9693 23.2476 28.4244 24.2288V17.3972L33.5658 17.3973ZM40.421 19.0959L40.4211 24.2288C38.8761 23.2476 37.1094 22.6622 35.2796 22.5253V19.0959H40.421Z" fill="white"/>
</svg>
