<svg width="27" height="27" viewBox="0 0 27 27" fill="none" xmlns="http://www.w3.org/2000/svg">
<g clip-path="url(#clip0_597_2)">
<path d="M9.35831 0.883519C6.67417 1.81467 4.35938 3.58203 2.75393 5.92599C1.14848 8.26996 0.337002 11.067 0.438689 13.9062C0.540376 16.7455 1.54987 19.4773 3.31888 21.7004C5.0879 23.9235 7.5232 25.5207 10.2671 26.2575C12.4916 26.8315 14.8222 26.8567 17.0586 26.3309C19.0846 25.8759 20.9577 24.9024 22.4944 23.506C24.0938 22.0082 25.2548 20.1028 25.8524 17.9947C26.502 15.7021 26.6176 13.2912 26.1903 10.9471H13.6985V16.1289H20.9329C20.7884 16.9553 20.4785 17.7441 20.022 18.4481C19.5654 19.152 18.9716 19.7566 18.2759 20.2256C17.3925 20.81 16.3967 21.2032 15.3524 21.38C14.305 21.5747 13.2306 21.5747 12.1832 21.38C11.1217 21.1605 10.1174 20.7223 9.23448 20.0934C7.81604 19.0894 6.75098 17.6629 6.19129 16.0176C5.62214 14.3416 5.62214 12.5245 6.19129 10.8484C6.58969 9.67356 7.24829 8.60386 8.11795 7.71916C9.11316 6.68814 10.3731 5.95117 11.7596 5.58909C13.1461 5.22701 14.6055 5.25382 15.9778 5.66658C17.0498 5.99565 18.03 6.57059 18.8405 7.34559C19.6562 6.53407 20.4705 5.72045 21.2834 4.90473C21.7032 4.46609 22.1607 4.04844 22.5742 3.59931C21.3371 2.44809 19.885 1.5523 18.3011 0.963271C15.4168 -0.084029 12.2608 -0.112174 9.35831 0.883519Z" fill="white"/>
<path d="M9.35822 0.883562C12.2605 -0.112808 15.4165 -0.0854032 18.301 0.961216C19.8852 1.55425 21.3366 2.45435 22.572 3.60985C22.1522 4.05898 21.7094 4.47873 21.2813 4.91527C20.4669 5.72819 19.6533 6.53831 18.8404 7.34563C18.03 6.57064 17.0497 5.99569 15.9777 5.66663C14.6059 5.25242 13.1465 5.22406 11.7597 5.58465C10.3728 5.94525 9.11206 6.68087 8.11576 7.71081C7.2461 8.59551 6.5875 9.66521 6.1891 10.8401L1.83838 7.47155C3.39567 4.38336 6.09203 2.02114 9.35822 0.883562Z" fill="#E33629"/>
<path d="M0.684068 10.8086C0.917914 9.64963 1.30615 8.52729 1.83838 7.47156L6.1891 10.8485C5.61995 12.5245 5.61995 14.3416 6.1891 16.0177C4.73956 17.137 3.28932 18.262 1.83838 19.3925C0.50599 16.7403 0.099633 13.7185 0.684068 10.8086Z" fill="#F8BD00"/>
<path d="M13.6987 10.9451H26.1905C26.6178 13.2892 26.5022 15.7002 25.8526 17.9927C25.2549 20.1008 24.094 22.0062 22.4946 23.504C21.0905 22.4085 19.6801 21.3213 18.2761 20.2258C18.9722 19.7562 19.5663 19.151 20.0229 18.4463C20.4795 17.7416 20.789 16.952 20.9331 16.1248H13.6987C13.6966 14.3996 13.6987 12.6723 13.6987 10.9451Z" fill="#587DBD"/>
<path d="M1.83643 19.3925C3.28737 18.2732 4.73761 17.1482 6.18715 16.0177C6.74795 17.6635 7.81453 19.0901 9.23454 20.0935C10.1202 20.7195 11.1266 21.154 12.1896 21.3695C13.237 21.5643 14.3113 21.5643 15.3587 21.3695C16.403 21.1928 17.3989 20.7996 18.2823 20.2152C19.6863 21.3108 21.0967 22.3979 22.5008 23.4935C20.9643 24.8907 19.0912 25.8648 17.065 26.3205C14.8286 26.8462 12.4979 26.821 10.2734 26.247C8.51404 25.7773 6.87066 24.9492 5.44629 23.8146C3.93867 22.6176 2.70732 21.1092 1.83643 19.3925Z" fill="#319F43"/>
</g>
<defs>
<clipPath id="clip0_597_2">
<rect width="26.8641" height="26.8641" fill="white"/>
</clipPath>
</defs>
</svg>
