<svg width="60" height="60" viewBox="0 0 60 60" fill="none" xmlns="http://www.w3.org/2000/svg">
<circle cx="30" cy="30" r="30" fill="#ABC1F3"/>
<path d="M47.852 20.1361C47.6644 19.6884 47.3052 19.3325 46.8533 19.1466C46.631 19.0527 46.3922 19.0029 46.1505 19H36.9032C36.4127 19 35.9423 19.1931 35.5954 19.5367C35.2486 19.8804 35.0538 20.3465 35.0538 20.8324C35.0538 21.3184 35.2486 21.7845 35.5954 22.1282C35.9423 22.4718 36.4127 22.6649 36.9032 22.6649H41.6933L31.3548 32.9083L25.2701 26.8612C25.0982 26.6894 24.8936 26.5531 24.6682 26.4601C24.4429 26.3671 24.2011 26.3192 23.957 26.3192C23.7128 26.3192 23.4711 26.3671 23.2457 26.4601C23.0203 26.5531 22.8158 26.6894 22.6439 26.8612L11.5471 37.8559C11.3737 38.0262 11.2361 38.2289 11.1422 38.4522C11.0483 38.6755 11 38.915 11 39.1569C11 39.3988 11.0483 39.6383 11.1422 39.8616C11.2361 40.0849 11.3737 40.2876 11.5471 40.458C11.719 40.6297 11.9236 40.766 12.1489 40.8591C12.3743 40.9521 12.616 41 12.8602 41C13.1043 41 13.3461 40.9521 13.5714 40.8591C13.7968 40.766 14.0014 40.6297 14.1733 40.458L23.957 30.746L30.0417 36.7931C30.2136 36.9648 30.4182 37.1011 30.6436 37.1942C30.8689 37.2872 31.1107 37.3351 31.3548 37.3351C31.599 37.3351 31.8407 37.2872 32.0661 37.1942C32.2915 37.1011 32.496 36.9648 32.6679 36.7931L44.3011 25.2486V29.9947C44.3011 30.4807 44.4959 30.9468 44.8428 31.2904C45.1896 31.6341 45.66 31.8271 46.1505 31.8271C46.641 31.8271 47.1115 31.6341 47.4583 31.2904C47.8051 30.9468 48 30.4807 48 29.9947V20.8324C47.9971 20.593 47.9468 20.3564 47.852 20.1361Z" fill="white"/>
</svg>
