<svg width="60" height="60" viewBox="0 0 60 60" fill="none" xmlns="http://www.w3.org/2000/svg">
<circle cx="30" cy="30" r="30" fill="#ABC1F3"/>
<path d="M29.7083 16.875C29.7083 18.2557 26.8073 20.4167 25.5417 20.4167C24.276 20.4167 23.875 18.8807 23.875 17.5C23.875 16.1193 25.9427 15 27.2083 15C28.474 15 29.7083 15.4943 29.7083 16.875Z" fill="white"/>
<ellipse cx="36.1667" cy="43.125" rx="1.66667" ry="1.875" fill="white"/>
<path d="M40.5417 18.5415C40.9584 19.3748 40.6289 20.4165 39.7084 20.4165C38.7879 20.4165 37.4167 19.577 37.4167 18.5415C37.4167 17.506 37.7463 16.6665 38.6667 16.6665C39.5872 16.6665 39.8126 17.0832 40.5417 18.5415Z" fill="white"/>
<path d="M36.0388 28.9915C36.278 28.6928 40.1251 26.9897 40.6412 27.0636C41.1572 27.1374 43.4248 33.1612 43.048 33.6455C42.6711 34.1297 37.2915 35.6909 36.7907 35.071C36.2899 34.451 35.7996 29.2902 36.0388 28.9915Z" fill="white"/>
<path d="M21.2305 25.4145C21.7957 25.1552 29.9218 26.4929 30.2176 27.1545C30.5133 27.8161 28.7868 37.8487 27.256 38.5509C25.7251 39.253 18.8189 36.1406 17.8379 34.6429C16.8569 33.1452 20.6653 25.6737 21.2305 25.4145Z" fill="white"/>
</svg>
