<svg width="60" height="60" viewBox="0 0 60 60" fill="none" xmlns="http://www.w3.org/2000/svg">
<circle cx="30" cy="30" r="30" fill="#FFDBCC"/>
<path d="M17 27.0263V19.8603L17.0047 19.7473C17.0495 19.1886 17.4247 18.7099 17.9555 18.551L29.6352 15.0545L29.7264 15.0306C29.9414 14.983 30.1652 14.991 30.3772 15.0545L42.0445 18.551C42.6106 18.7206 43 19.2541 43 19.8603V27.0295L42.9964 27.4007C42.9225 31.2314 41.7135 34.9514 39.5261 38.0637C37.2683 41.2763 34.0827 43.6783 30.4208 44.9304C30.1491 45.0232 29.8551 45.0232 29.5834 44.9304C25.9202 43.6789 22.733 41.2765 20.4744 38.0632C18.2863 34.9502 17.0772 31.2292 17.0036 27.3975L17 27.0263ZM19.6562 27.3437C19.7191 30.6204 20.753 33.8032 22.6248 36.4662C24.4705 39.0921 27.0419 41.0849 30.0016 42.1919C32.9602 41.0846 35.5306 39.0921 37.3757 36.4668C39.3072 33.7185 40.3465 30.4167 40.3469 27.0295V20.8825L30.0052 17.7839L19.6531 20.883V27.0263L19.6562 27.3437Z" fill="white"/>
</svg>
