<svg width="60" height="60" viewBox="0 0 60 60" fill="none" xmlns="http://www.w3.org/2000/svg">
<circle cx="30" cy="30" r="30" fill="#E6B4F5"/>
<path d="M15 30C15 21.7162 21.8822 15.0017 30.3728 15.0005V15L30.3739 15.0005L30.375 15V15.0005C33.0815 14.9967 35.7409 15.6925 38.0816 17.0183C38.7491 17.3964 38.9758 18.2313 38.5883 18.8826C38.2006 19.5338 37.3454 19.755 36.6779 19.377C34.7642 18.2931 32.59 17.7238 30.3772 17.7273H30.375C23.4273 17.7273 17.7955 23.2218 17.7955 30C17.7955 36.7782 23.4273 42.2727 30.375 42.2727C37.3227 42.2727 42.9545 36.7782 42.9545 30C42.9545 27.7721 42.3468 25.6857 41.286 23.8881C40.9009 23.2355 41.1309 22.4017 41.7998 22.0259C42.4687 21.6502 43.3233 21.8747 43.7086 22.5272C45.0071 24.7278 45.75 27.282 45.75 30C45.75 38.2845 38.8666 45 30.375 45C21.8834 45 15 38.2845 15 30Z" fill="white"/>
<path d="M35.4408 23.3025C35.9539 23.115 36.5319 23.2372 36.9193 23.6152C37.2824 23.9695 37.4151 24.4871 37.272 24.9628L37.2398 25.0576L37.2393 25.0592C37.2389 25.0601 37.2383 25.0613 37.2376 25.063C37.2364 25.0663 37.2346 25.0712 37.2322 25.0773C37.2274 25.0897 37.2205 25.1078 37.2114 25.1311C37.1933 25.1779 37.1668 25.2462 37.1328 25.333C37.0647 25.5069 36.9662 25.7559 36.8451 26.0575C36.6031 26.6597 36.268 27.4763 35.8972 28.3288C35.528 29.1779 35.1163 30.0792 34.7212 30.8451C34.5239 31.2276 34.3228 31.5915 34.1266 31.9051C33.9424 32.1997 33.7168 32.5249 33.46 32.7755C32.6736 33.5427 31.6068 33.974 30.4947 33.974C29.3826 33.974 28.3158 33.5427 27.5294 32.7755C26.7432 32.0083 26.3015 30.9675 26.3015 29.8826C26.3016 28.7977 26.7432 27.7573 27.5294 26.9902C27.7863 26.7395 28.1201 26.519 28.4221 26.3392C28.7436 26.1479 29.1167 25.9521 29.5086 25.7597C30.2937 25.3743 31.2175 24.9726 32.0879 24.6123C32.9618 24.2506 33.7987 23.9232 34.416 23.6871C34.7249 23.5689 34.9798 23.4733 35.158 23.4069C35.2471 23.3737 35.3174 23.3479 35.3654 23.3302C35.3894 23.3214 35.4079 23.3146 35.4206 23.3099C35.4268 23.3077 35.4314 23.3053 35.4348 23.3041C35.4365 23.3035 35.4382 23.3034 35.4392 23.303L35.4402 23.3025H35.4408ZM29.097 29.8826C29.097 30.2442 29.2443 30.5915 29.5065 30.8472C29.7686 31.1029 30.1241 31.2467 30.4947 31.2467C30.8653 31.2467 31.2208 31.1029 31.4829 30.8472C31.4829 30.8472 31.5088 30.8209 31.5599 30.7524C31.6092 30.6863 31.6698 30.5977 31.7406 30.4845C31.8829 30.257 32.0457 29.9642 32.2238 29.6189C32.5797 28.929 32.9649 28.0891 33.324 27.2634C33.3592 27.1824 33.3932 27.1013 33.4277 27.0211C33.3456 27.0547 33.2628 27.0885 33.1799 27.1228C32.3335 27.4731 31.4721 27.8484 30.765 28.1956C30.411 28.3694 30.1114 28.5288 29.8783 28.6675C29.7624 28.7365 29.6714 28.7953 29.6036 28.8433C29.536 28.8913 29.5084 28.9167 29.5065 28.9184C29.2444 29.1741 29.097 29.521 29.097 29.8826Z" fill="white"/>
</svg>
