<svg width="60" height="60" viewBox="0 0 60 60" fill="none" xmlns="http://www.w3.org/2000/svg">
<circle cx="30" cy="30" r="30" fill="#FFDBCC"/>
<path d="M43.9091 37.7778H16.0909V19.1111H43.9091M43.9091 16H16.0909C14.3909 16 13 17.4 13 19.1111V37.7778C13 38.6029 13.3256 39.3942 13.9053 39.9777C14.485 40.5611 15.2711 40.8889 16.0909 40.8889H23.8182V44H36.1818V40.8889H43.9091C45.6245 40.8889 47 39.5044 47 37.7778V19.1111C47 18.286 46.6744 17.4947 46.0947 16.9112C45.515 16.3278 44.7289 16 43.9091 16ZM34.6364 21.4444L33.6782 23.5756L31.5455 24.5556L33.6782 25.5356L34.6364 27.6667L35.61 25.5356L37.7273 24.5556L35.61 23.5756L34.6364 21.4444ZM27.6818 24.5556L25.9973 28.3044L22.2727 30L25.9973 31.6956L27.6818 35.4444L29.3818 31.6956L33.0909 30L29.3818 28.3044L27.6818 24.5556Z" fill="white"/>
</svg>
