<svg width="60" height="60" viewBox="0 0 60 60" fill="none" xmlns="http://www.w3.org/2000/svg">
<circle cx="30" cy="30" r="30" fill="#E6B4F5"/>
<path d="M40 35.88C40 37.16 39.6745 38.3867 39.0236 39.56C38.3726 40.7067 37.4097 41.6667 36.1349 42.44C34.8872 43.2133 33.3819 43.6533 31.6188 43.76V47H29.4218V43.76C26.9536 43.5467 24.9465 42.7733 23.4004 41.44C21.8544 40.08 21.0678 38.36 21.0407 36.28H24.9872C25.0956 37.4 25.5161 38.3733 26.2484 39.2C27.0079 40.0267 28.0657 40.5467 29.4218 40.76V30.76C27.6046 30.3067 26.1399 29.84 25.0278 29.36C23.9158 28.88 22.9665 28.1333 22.1799 27.12C21.3933 26.1067 21 24.7467 21 23.04C21 20.88 21.7595 19.0933 23.2784 17.68C24.8244 16.2667 26.8722 15.48 29.4218 15.32V12H31.6188V15.32C33.9243 15.5067 35.7823 16.24 37.1927 17.52C38.6031 18.7733 39.4168 20.4133 39.6338 22.44H35.6874C35.5517 21.5067 35.1313 20.6667 34.4261 19.92C33.7209 19.1467 32.7852 18.64 31.6188 18.4V28.16C33.409 28.6133 34.8601 29.08 35.9722 29.56C37.1113 30.0133 38.0607 30.7467 38.8201 31.76C39.6067 32.7733 40 34.1467 40 35.88ZM24.7837 22.84C24.7837 24.1467 25.177 25.1467 25.9636 25.84C26.7502 26.5333 27.9029 27.1067 29.4218 27.56V18.32C28.0114 18.4533 26.8858 18.9067 26.045 19.68C25.2041 20.4267 24.7837 21.48 24.7837 22.84ZM31.6188 40.8C33.0835 40.64 34.2227 40.12 35.0364 39.24C35.8772 38.36 36.2976 37.3067 36.2976 36.08C36.2976 34.7733 35.8908 33.7733 35.0771 33.08C34.2634 32.36 33.1106 31.7867 31.6188 31.36V40.8Z" fill="white"/>
</svg>
