<svg id="Layer_1" data-name="Layer 1" xmlns="http://www.w3.org/2000/svg" viewBox="0 0 667 125.99"><defs><style>.cls-1{fill:#231f20;}.cls-2{fill:#bed530;}</style></defs><title>Artboard 1ai neww</title><path class="cls-1" d="M221.92,94.48H187.14l-5.08,9.58H167.42Q180.67,78.88,194,53.73h21.16l26.53,50.33H227l-.16-.26ZM206.21,65.21h-3.36L193.3,83h22.46Z"/><path class="cls-1" d="M259.53,64.52v3.82c3.07-3.36,7.7-5.19,14-5.41.39,0,.81,0,1.2,0,13.69,0,21,8.77,21,21.39v19.78H283V84.28c0-2.91-.94-9.49-9.51-10.11-.39,0-.75,0-1.14,0-6.59,0-12.68,4.27-12.85,11V104H246.85V64.52Z"/><path class="cls-1" d="M315.47,104.75c-10.92-.07-16.33-6.3-16.33-12.59,0-6.45,5.7-13,17.11-13h14.57c-2.41-4.27-6.75-5.57-11.28-5.57a36.76,36.76,0,0,0-8.86,1.3v-10a49.54,49.54,0,0,1,11.89-1.56c11.41,0,22.23,4.92,22.23,21.31v19.46H332.12V100.7c-1.43,1.86-8.93,4-16.49,4ZM332,87.21H318.24c-5,0-7.56,2.09-7.56,4.24,0,2.34,3.09,4.79,9.61,4.79h.59C326.45,96.11,332,93.7,332,87.21Z"/><path class="cls-1" d="M352,53.73h12.68V103.9H352Z"/><path class="cls-1" d="M382.58,63.48l13.49,29.24L409.6,63.48h12.68l-18.09,39.08c-5.83,13-16.36,17.44-28.13,17.44A59,59,0,0,1,365,118.86V108.1a54.23,54.23,0,0,0,10.85,1.21c6.82,0,13.07-1.7,15.68-6.75l-1.92,3.77-1.93-4.41L369.87,63.48Z"/><path class="cls-2" d="M481.05,53.73V65.89H459.86v38.17h-13.1V65.89H425.54V53.73Z"/><path class="cls-2" d="M521.43,104.06V97.18c-2.28,4.79-6.55,7.63-14,7.86-.42,0-.85,0-1.24,0-13.59,0-19.92-8.9-19.92-21.67v-20H497.9v20c0,2.93,1,9.64,9.52,10.23.39,0,.78,0,1.17,0,6.59,0,12.68-4.33,12.84-11.11V63.38h12.68v40.68Z"/><path class="cls-2" d="M554,96.82v7.27H541.29V53.73H554V72.25c3.1-5.54,10.66-8.93,19-8.93,13,0,23.5,8.5,23.5,21.31,0,14.05-12.09,20.31-23.67,20.31C565,104.94,557.39,102.07,554,96.82Zm30.87-12.19c0-6.68-7.4-10.23-14-10.23S557,77.79,557,84.63s7.27,9.88,13.86,9.88S584.83,91.28,584.83,84.63Z"/><path class="cls-2" d="M600.38,84.05c0-13.46,13-21,25.88-21C638.71,63,651,70.13,651,85.94H613.39c1.2,5.08,6.78,7.56,12.35,7.56,4.11,0,8.18-1.34,10.56-3.94h14.08c-3,9.77-13.79,14.63-24.54,14.63C613.09,104.19,600.38,97.41,600.38,84.05Zm25.42-9.91c-4.4,0-8.8,1.53-11.08,4.66h22.13C634.6,75.67,630.2,74.14,625.8,74.14Z"/><rect class="cls-1" x="76.09" y="61.36" width="42.9" height="42.9"/><polygon class="cls-1" points="56.9 104.26 14 104.26 52 18.46 94.9 18.46 56.9 104.26"/></svg>