<svg width="60" height="60" viewBox="0 0 60 60" fill="none" xmlns="http://www.w3.org/2000/svg">
<circle cx="30" cy="30" r="30" fill="#E6B4F5"/>
<path d="M31.0723 38.6562L31.2471 38.627C32.0749 38.4898 32.7357 38.1581 33.2168 37.624L33.2158 37.623C33.7233 37.0894 33.9765 36.4298 33.9766 35.6523C33.9766 34.9287 33.7378 34.3316 33.2539 33.876H33.2549C32.8061 33.4022 32.1415 33.0076 31.2744 32.6846L31.0723 32.6084V38.6562ZM28.6318 20.373C27.9561 20.4929 27.3971 20.741 26.9639 21.1221L26.7852 21.2939C26.3244 21.7538 26.1036 22.3925 26.1035 23.1885C26.1035 23.8849 26.3146 24.4794 26.7422 24.9609L26.7451 24.9648C27.1901 25.4346 27.8101 25.842 28.5967 26.1924L28.8076 26.2871V20.3418L28.6318 20.373ZM28.8076 31.9521L28.6943 31.9229C26.6138 31.3928 24.951 30.8768 23.7041 30.376H23.7031C22.4997 29.8817 21.4379 29.0876 20.5176 27.9902C19.6118 26.9103 19.1505 25.422 19.1504 23.5078C19.1504 21.2833 19.9202 19.4791 21.4609 18.084L21.7793 17.8105C23.567 16.374 25.8595 15.5593 28.667 15.375L28.8076 15.3662V12.1504H31.0723V15.3643L31.2109 15.375C33.9938 15.5857 36.1776 16.3873 37.7764 17.7676C39.3361 19.1141 40.2236 20.9725 40.4346 23.3574H33.3965C33.3037 22.6798 33.0935 22.1069 32.7559 21.6465C32.3956 21.1552 31.8986 20.8004 31.2725 20.5791L31.0723 20.5078V27.0059L31.1826 27.0361C33.3979 27.6461 35.1013 28.1893 36.2959 28.6641C37.4722 29.1316 38.5213 29.9116 39.4424 31.0098L39.4453 31.0127C40.376 32.0659 40.8496 33.5267 40.8496 35.4131C40.8496 36.8449 40.471 38.1715 39.7109 39.3955L39.71 39.3965C39.024 40.5161 38.0142 41.4578 36.6738 42.2188L36.4014 42.3682C34.9559 43.1253 33.2292 43.546 31.2168 43.625L31.0723 43.6309V46.8496H28.8076V43.5967L28.6699 43.5859C25.8606 43.3489 23.6078 42.5198 21.9004 41.1104C20.2366 39.7109 19.3356 37.8266 19.1992 35.4434H26.2021C26.2965 36.2005 26.5301 36.8369 26.915 37.3447C27.3234 37.8834 27.8918 38.2682 28.6113 38.502L28.8076 38.5664V31.9521Z" fill="white" stroke="#E6B4F5" stroke-width="0.3"/>
</svg>
