<svg width="270" height="213" viewBox="0 0 270 213" fill="none" xmlns="http://www.w3.org/2000/svg">
<g opacity="0.4">
<path d="M0.407837 0.297356C9.50777 0.297356 18.5186 2.08972 26.9259 5.57211C35.3331 9.05451 42.9721 14.1587 49.4067 20.5934C55.8414 27.028 60.9456 34.667 64.428 43.0742C67.9104 51.4815 69.7027 60.4923 69.7027 69.5923L0.407837 69.5923L0.407837 0.297356Z" fill="white"/>
</g>
<g opacity="0.8">
<circle cx="36.7029" cy="36.7029" r="1.7029" fill="white"/>
<circle cx="65.6521" cy="36.7029" r="1.7029" fill="white"/>
<circle cx="94.6015" cy="36.7029" r="1.7029" fill="white"/>
<circle cx="123.551" cy="36.7029" r="1.7029" fill="white"/>
<circle cx="152.5" cy="36.7029" r="1.7029" fill="white"/>
<circle cx="181.449" cy="36.7029" r="1.7029" fill="white"/>
<circle cx="36.7029" cy="65.6522" r="1.7029" fill="white"/>
<circle cx="65.6521" cy="65.6522" r="1.7029" fill="white"/>
<circle cx="94.6015" cy="65.6522" r="1.7029" fill="white"/>
<circle cx="123.551" cy="65.6522" r="1.7029" fill="white"/>
<circle cx="152.5" cy="65.6522" r="1.7029" fill="white"/>
<circle cx="181.449" cy="65.6522" r="1.7029" fill="white"/>
<circle cx="36.7029" cy="94.6015" r="1.7029" fill="white"/>
<circle cx="65.6521" cy="94.6015" r="1.7029" fill="white"/>
<circle cx="94.6015" cy="94.6015" r="1.7029" fill="white"/>
<circle cx="123.551" cy="94.6015" r="1.7029" fill="white"/>
<circle cx="152.5" cy="94.6015" r="1.7029" fill="white"/>
<circle cx="181.449" cy="94.6015" r="1.7029" fill="white"/>
<circle cx="36.7029" cy="123.551" r="1.7029" fill="white"/>
<circle cx="65.6521" cy="123.551" r="1.7029" fill="white"/>
<circle cx="94.6015" cy="123.551" r="1.7029" fill="white"/>
<circle cx="123.551" cy="123.551" r="1.7029" fill="white"/>
<circle cx="152.5" cy="123.551" r="1.7029" fill="white"/>
<circle cx="181.449" cy="123.551" r="1.7029" fill="white"/>
<circle cx="36.7029" cy="152.5" r="1.7029" fill="white"/>
<circle cx="65.6521" cy="152.5" r="1.7029" fill="white"/>
<circle cx="94.6015" cy="152.5" r="1.7029" fill="white"/>
<circle cx="123.551" cy="152.5" r="1.7029" fill="white"/>
<circle cx="152.5" cy="152.5" r="1.7029" fill="white"/>
<circle cx="181.449" cy="152.5" r="1.7029" fill="white"/>
<circle cx="36.7029" cy="181.449" r="1.7029" fill="white"/>
<circle cx="65.6521" cy="181.449" r="1.7029" fill="white"/>
<circle cx="94.6015" cy="181.449" r="1.7029" fill="white"/>
<circle cx="123.551" cy="181.449" r="1.7029" fill="white"/>
<circle cx="152.5" cy="181.449" r="1.7029" fill="white"/>
<circle cx="181.449" cy="181.449" r="1.7029" fill="white"/>
<circle cx="36.7029" cy="210.399" r="1.7029" fill="white"/>
<circle cx="65.6521" cy="210.399" r="1.7029" fill="white"/>
<circle cx="94.6015" cy="210.399" r="1.7029" fill="white"/>
<circle cx="123.551" cy="210.399" r="1.7029" fill="white"/>
<circle cx="152.5" cy="210.399" r="1.7029" fill="white"/>
<circle cx="181.449" cy="210.399" r="1.7029" fill="white"/>
<circle cx="210.399" cy="36.7029" r="1.7029" fill="white"/>
<circle cx="239.348" cy="36.7029" r="1.7029" fill="white"/>
<circle cx="268.297" cy="36.7029" r="1.7029" fill="white"/>
<circle cx="210.399" cy="65.6522" r="1.7029" fill="white"/>
<circle cx="239.348" cy="65.6522" r="1.7029" fill="white"/>
<circle cx="268.297" cy="65.6522" r="1.7029" fill="white"/>
<circle cx="210.399" cy="94.6015" r="1.7029" fill="white"/>
<circle cx="239.348" cy="94.6015" r="1.7029" fill="white"/>
<circle cx="268.297" cy="94.6015" r="1.7029" fill="white"/>
<circle cx="210.399" cy="123.551" r="1.7029" fill="white"/>
<circle cx="239.348" cy="123.551" r="1.7029" fill="white"/>
<circle cx="268.297" cy="123.551" r="1.7029" fill="white"/>
<circle cx="210.399" cy="152.5" r="1.7029" fill="white"/>
<circle cx="239.348" cy="152.5" r="1.7029" fill="white"/>
<circle cx="268.297" cy="152.5" r="1.7029" fill="white"/>
<circle cx="210.399" cy="181.449" r="1.7029" fill="white"/>
<circle cx="239.348" cy="181.449" r="1.7029" fill="white"/>
<circle cx="268.297" cy="181.449" r="1.7029" fill="white"/>
<circle cx="210.399" cy="210.399" r="1.7029" fill="white"/>
<circle cx="239.348" cy="210.399" r="1.7029" fill="white"/>
<circle cx="268.297" cy="210.399" r="1.7029" fill="white"/>
</g>
</svg>
